<svg data-v-fde0c5aa="" xmlns="http://www.w3.org/2000/svg" viewBox="0 0 300 300" class="iconLeftSlogan"><!----><defs data-v-fde0c5aa=""><linearGradient data-v-fde0c5aa="" gradientTransform="rotate(25)" id="da74916d-bf62-4fd1-831a-4251f25ccdcf" x1="0%" y1="0%" x2="100%" y2="0%"><stop data-v-fde0c5aa="" offset="0%" stop-color="#FF4B03" stop-opacity="1"></stop><stop data-v-fde0c5aa="" offset="100%" stop-color="#FCFF65" stop-opacity="1"></stop></linearGradient></defs><rect data-v-fde0c5aa="" fill="url(#da74916d-bf62-4fd1-831a-4251f25ccdcf)" x="0" y="0" width="300px" height="300px" class="logo-background-square"></rect><defs data-v-fde0c5aa=""><!----></defs><g data-v-fde0c5aa="" id="25bebd46-9062-451b-bb17-d7bff8ad4e04" fill="#ffffff" transform="matrix(1.4330919408127438,0,0,1.4330919408127438,86.93981852240414,127.90470393753827)"><path d="M7.80 4.63L7.80 7.62L3.29 8.89L7.80 10.18L7.80 13.16L0.80 10.18L0.80 7.62L7.80 4.63ZM12.42 10.63L16.60 10.63L16.60 13.02L9.16 13.02L9.16 3.78L12.42 3.78L12.42 10.63ZM24.93 11.30L24.93 11.30Q25.17 11.30 25.28 11.24L25.28 11.24L25.03 12.88L25.03 12.88Q24.56 13.16 24.00 13.16L24.00 13.16L24.00 13.16Q23.14 13.16 22.57 12.86L22.57 12.86L22.57 12.86Q21.99 12.56 21.80 11.98L21.80 11.98L21.80 11.98Q21.48 12.53 20.85 12.84L20.85 12.84L20.85 12.84Q20.23 13.16 19.31 13.16L19.31 13.16L19.31 13.16Q18.21 13.16 17.68 12.73L17.68 12.73L17.68 12.73Q17.15 12.31 17.15 11.49L17.15 11.49L17.15 11.49Q17.15 10.61 17.78 10.09L17.78 10.09L17.78 10.09Q18.41 9.56 19.88 9.24L19.88 9.24L21.27 8.93L21.27 8.65L21.27 8.65Q21.27 8.33 21.11 8.15L21.11 8.15L21.11 8.15Q20.94 7.97 20.64 7.97L20.64 7.97L20.64 7.97Q20.30 7.97 20.10 8.15L20.10 8.15L20.10 8.15Q19.91 8.34 19.89 8.82L19.89 8.82L17.23 8.41L17.23 8.41Q17.35 7.21 18.24 6.54L18.24 6.54L18.24 6.54Q19.14 5.88 20.82 5.88L20.82 5.88L20.82 5.88Q22.68 5.88 23.57 6.59L23.57 6.59L23.57 6.59Q24.46 7.31 24.46 8.76L24.46 8.76L24.46 10.72L24.46 10.72Q24.46 11.30 24.93 11.30L24.93 11.30ZM20.66 11.41L20.66 11.41Q20.93 11.41 21.10 11.23L21.10 11.23L21.10 11.23Q21.27 11.06 21.27 10.72L21.27 10.72L21.27 10.05L20.80 10.19L20.80 10.19Q20.51 10.28 20.34 10.46L20.34 10.46L20.34 10.46Q20.17 10.65 20.17 10.92L20.17 10.92L20.17 10.92Q20.17 11.16 20.31 11.28L20.31 11.28L20.31 11.28Q20.45 11.41 20.66 11.41L20.66 11.41ZM27.31 5.57L27.31 5.57Q26.36 5.57 25.96 5.26L25.96 5.26L25.96 5.26Q25.56 4.96 25.56 4.23L25.56 4.23L25.56 4.23Q25.56 3.50 25.96 3.19L25.96 3.19L25.96 3.19Q26.36 2.88 27.31 2.88L27.31 2.88L27.31 2.88Q28.27 2.88 28.67 3.19L28.67 3.19L28.67 3.19Q29.06 3.50 29.06 4.23L29.06 4.23L29.06 4.23Q29.06 4.96 28.67 5.26L28.67 5.26L28.67 5.26Q28.27 5.57 27.31 5.57L27.31 5.57ZM28.92 6.02L28.92 13.02L25.70 13.02L25.70 6.02L28.92 6.02ZM35.21 5.88L35.21 5.88Q36.48 5.88 37.19 6.85L37.19 6.85L37.19 6.85Q37.90 7.81 37.90 9.56L37.90 9.56L37.90 9.56Q37.90 11.28 37.21 12.22L37.21 12.22L37.21 12.22Q36.51 13.16 35.22 13.16L35.22 13.16L35.22 13.16Q34.38 13.16 33.79 12.68L33.79 12.68L33.79 12.68Q33.19 12.21 32.93 11.38L32.93 11.38L32.84 13.02L30.02 13.02L30.02 3.22L33.24 3.22L33.24 7.20L33.24 7.20Q33.52 6.58 34.01 6.23L34.01 6.23L34.01 6.23Q34.50 5.88 35.21 5.88L35.21 5.88ZM33.92 10.91L33.92 10.91Q34.29 10.91 34.47 10.61L34.47 10.61L34.47 10.61Q34.65 10.30 34.65 9.52L34.65 9.52L34.65 9.52Q34.65 8.74 34.47 8.44L34.47 8.44L34.47 8.44Q34.29 8.15 33.92 8.15L33.92 8.15L33.92 8.15Q33.57 8.15 33.40 8.47L33.40 8.47L33.40 8.47Q33.24 8.79 33.24 9.46L33.24 9.46L33.24 9.58L33.24 9.58Q33.24 10.28 33.41 10.59L33.41 10.59L33.41 10.59Q33.59 10.91 33.92 10.91L33.92 10.91ZM46.14 11.30L46.14 11.30Q46.38 11.30 46.49 11.24L46.49 11.24L46.24 12.88L46.24 12.88Q45.77 13.16 45.21 13.16L45.21 13.16L45.21 13.16Q44.35 13.16 43.78 12.86L43.78 12.86L43.78 12.86Q43.20 12.56 43.01 11.98L43.01 11.98L43.01 11.98Q42.69 12.53 42.06 12.84L42.06 12.84L42.06 12.84Q41.44 13.16 40.52 13.16L40.52 13.16L40.52 13.16Q39.42 13.16 38.89 12.73L38.89 12.73L38.89 12.73Q38.36 12.31 38.36 11.49L38.36 11.49L38.36 11.49Q38.36 10.61 38.99 10.09L38.99 10.09L38.99 10.09Q39.62 9.56 41.09 9.24L41.09 9.24L42.48 8.93L42.48 8.65L42.48 8.65Q42.48 8.33 42.32 8.15L42.32 8.15L42.32 8.15Q42.15 7.97 41.85 7.97L41.85 7.97L41.85 7.97Q41.51 7.97 41.31 8.15L41.31 8.15L41.31 8.15Q41.12 8.34 41.10 8.82L41.10 8.82L38.44 8.41L38.44 8.41Q38.56 7.21 39.45 6.54L39.45 6.54L39.45 6.54Q40.35 5.88 42.03 5.88L42.03 5.88L42.03 5.88Q43.89 5.88 44.78 6.59L44.78 6.59L44.78 6.59Q45.67 7.31 45.67 8.76L45.67 8.76L45.67 10.72L45.67 10.72Q45.67 11.30 46.14 11.30L46.14 11.30ZM41.87 11.41L41.87 11.41Q42.14 11.41 42.31 11.23L42.31 11.23L42.31 11.23Q42.48 11.06 42.48 10.72L42.48 10.72L42.48 10.05L42.01 10.19L42.01 10.19Q41.72 10.28 41.55 10.46L41.55 10.46L41.55 10.46Q41.38 10.65 41.38 10.92L41.38 10.92L41.38 10.92Q41.38 11.16 41.52 11.28L41.52 11.28L41.52 11.28Q41.66 11.41 41.87 11.41L41.87 11.41ZM52.32 5.88L52.32 5.88Q53.35 5.88 53.94 6.50L53.94 6.50L53.94 6.50Q54.52 7.11 54.52 8.23L54.52 8.23L54.52 13.02L51.30 13.02L51.30 9.07L51.30 9.07Q51.30 8.61 51.18 8.43L51.18 8.43L51.18 8.43Q51.07 8.25 50.81 8.25L50.81 8.25L50.81 8.25Q50.46 8.25 50.30 8.51L50.30 8.51L50.30 8.51Q50.13 8.78 50.13 9.35L50.13 9.35L50.13 13.02L46.91 13.02L46.91 3.22L50.13 3.22L50.13 7.45L50.13 7.45Q50.41 6.68 50.97 6.28L50.97 6.28L50.97 6.28Q51.53 5.88 52.32 5.88L52.32 5.88ZM63.27 3.64L63.27 3.64Q64.64 3.64 65.60 3.96L65.60 3.96L65.60 3.96Q66.57 4.28 67.52 5.11L67.52 5.11L66.09 7.14L66.09 7.14Q65.46 6.55 64.81 6.29L64.81 6.29L64.81 6.29Q64.16 6.03 63.36 6.03L63.36 6.03L63.36 6.03Q62.87 6.03 62.58 6.18L62.58 6.18L62.58 6.18Q62.29 6.33 62.29 6.57L62.29 6.57L62.29 6.57Q62.29 6.72 62.57 6.80L62.57 6.80L62.57 6.80Q62.85 6.89 63.55 7.01L63.55 7.01L63.55 7.01Q65.58 7.38 66.47 8.11L66.47 8.11L66.47 8.11Q67.35 8.85 67.35 10.18L67.35 10.18L67.35 10.18Q67.35 11.13 66.81 11.80L66.81 11.80L66.81 11.80Q66.26 12.47 65.32 12.82L65.32 12.82L65.32 12.82Q64.39 13.16 63.22 13.16L63.22 13.16L63.22 13.16Q61.59 13.16 60.61 12.85L60.61 12.85L60.61 12.85Q59.63 12.54 58.69 11.86L58.69 11.86L60.09 9.65L60.09 9.65Q60.68 10.22 61.38 10.49L61.38 10.49L61.38 10.49Q62.08 10.77 62.99 10.77L62.99 10.77L62.99 10.77Q64.01 10.77 64.01 10.35L64.01 10.35L64.01 10.35Q64.01 10.12 63.69 10.01L63.69 10.01L63.69 10.01Q63.36 9.90 62.64 9.77L62.64 9.77L62.64 9.77Q61.57 9.58 60.82 9.32L60.82 9.32L60.82 9.32Q60.07 9.07 59.51 8.47L59.51 8.47L59.51 8.47Q58.94 7.87 58.94 6.82L58.94 6.82L58.94 6.82Q58.94 5.87 59.44 5.15L59.44 5.15L59.44 5.15Q59.95 4.44 60.92 4.04L60.92 4.04L60.92 4.04Q61.89 3.64 63.27 3.64L63.27 3.64ZM73.54 5.88L73.54 5.88Q74.58 5.88 75.16 6.50L75.16 6.50L75.16 6.50Q75.74 7.11 75.74 8.23L75.74 8.23L75.74 13.02L72.52 13.02L72.52 9.07L72.52 9.07Q72.52 8.61 72.41 8.43L72.41 8.43L72.41 8.43Q72.30 8.25 72.03 8.25L72.03 8.25L72.03 8.25Q71.68 8.25 71.52 8.51L71.52 8.51L71.52 8.51Q71.36 8.78 71.36 9.35L71.36 9.35L71.36 13.02L68.14 13.02L68.14 3.22L71.36 3.22L71.36 7.45L71.36 7.45Q71.64 6.68 72.20 6.28L72.20 6.28L72.20 6.28Q72.76 5.88 73.54 5.88L73.54 5.88ZM84.28 11.30L84.28 11.30Q84.52 11.30 84.63 11.24L84.63 11.24L84.38 12.88L84.38 12.88Q83.90 13.16 83.34 13.16L83.34 13.16L83.34 13.16Q82.49 13.16 81.91 12.86L81.91 12.86L81.91 12.86Q81.34 12.56 81.14 11.98L81.14 11.98L81.14 11.98Q80.82 12.53 80.20 12.84L80.20 12.84L80.20 12.84Q79.58 13.16 78.65 13.16L78.65 13.16L78.65 13.16Q77.56 13.16 77.03 12.73L77.03 12.73L77.03 12.73Q76.50 12.31 76.50 11.49L76.50 11.49L76.50 11.49Q76.50 10.61 77.13 10.09L77.13 10.09L77.13 10.09Q77.76 9.56 79.23 9.24L79.23 9.24L80.61 8.93L80.61 8.65L80.61 8.65Q80.61 8.33 80.45 8.15L80.45 8.15L80.45 8.15Q80.29 7.97 79.98 7.97L79.98 7.97L79.98 7.97Q79.65 7.97 79.45 8.15L79.45 8.15L79.45 8.15Q79.25 8.34 79.24 8.82L79.24 8.82L76.58 8.41L76.58 8.41Q76.69 7.21 77.59 6.54L77.59 6.54L77.59 6.54Q78.48 5.88 80.16 5.88L80.16 5.88L80.16 5.88Q82.03 5.88 82.91 6.59L82.91 6.59L82.91 6.59Q83.80 7.31 83.80 8.76L83.80 8.76L83.80 10.72L83.80 10.72Q83.80 11.30 84.28 11.30L84.28 11.30ZM80.01 11.41L80.01 11.41Q80.28 11.41 80.44 11.23L80.44 11.23L80.44 11.23Q80.61 11.06 80.61 10.72L80.61 10.72L80.61 10.05L80.15 10.19L80.15 10.19Q79.86 10.28 79.69 10.46L79.69 10.46L79.69 10.46Q79.52 10.65 79.52 10.92L79.52 10.92L79.52 10.92Q79.52 11.16 79.66 11.28L79.66 11.28L79.66 11.28Q79.80 11.41 80.01 11.41L80.01 11.41ZM90.45 5.88L90.45 5.88Q91.49 5.88 92.07 6.50L92.07 6.50L92.07 6.50Q92.65 7.11 92.65 8.23L92.65 8.23L92.65 13.02L89.43 13.02L89.43 9.07L89.43 9.07Q89.43 8.61 89.32 8.43L89.32 8.43L89.32 8.43Q89.21 8.25 88.94 8.25L88.94 8.25L88.94 8.25Q88.59 8.25 88.43 8.51L88.43 8.51L88.43 8.51Q88.27 8.78 88.27 9.35L88.27 9.35L88.27 13.02L85.05 13.02L85.05 3.22L88.27 3.22L88.27 7.45L88.27 7.45Q88.55 6.68 89.11 6.28L89.11 6.28L89.11 6.28Q89.67 5.88 90.45 5.88L90.45 5.88ZM95.34 5.57L95.34 5.57Q94.39 5.57 93.99 5.26L93.99 5.26L93.99 5.26Q93.59 4.96 93.59 4.23L93.59 4.23L93.59 4.23Q93.59 3.50 93.99 3.19L93.99 3.19L93.99 3.19Q94.39 2.88 95.34 2.88L95.34 2.88L95.34 2.88Q96.29 2.88 96.69 3.19L96.69 3.19L96.69 3.19Q97.09 3.50 97.09 4.23L97.09 4.23L97.09 4.23Q97.09 4.96 96.69 5.26L96.69 5.26L96.69 5.26Q96.29 5.57 95.34 5.57L95.34 5.57ZM96.95 6.02L96.95 13.02L93.73 13.02L93.73 6.02L96.95 6.02ZM102.51 3.22L105.73 3.22L105.73 13.02L102.83 13.02L102.73 11.63L102.73 11.63Q102.42 12.35 101.86 12.75L101.86 12.75L101.86 12.75Q101.30 13.16 100.52 13.16L100.52 13.16L100.52 13.16Q99.23 13.16 98.54 12.22L98.54 12.22L98.54 12.22Q97.85 11.28 97.85 9.56L97.85 9.56L97.85 9.56Q97.85 7.81 98.55 6.85L98.55 6.85L98.55 6.85Q99.26 5.88 100.53 5.88L100.53 5.88L100.53 5.88Q101.25 5.88 101.74 6.23L101.74 6.23L101.74 6.23Q102.23 6.58 102.51 7.20L102.51 7.20L102.51 3.22ZM101.82 10.91L101.82 10.91Q102.16 10.91 102.33 10.59L102.33 10.59L102.33 10.59Q102.51 10.28 102.51 9.58L102.51 9.58L102.51 9.46L102.51 9.46Q102.51 8.79 102.34 8.47L102.34 8.47L102.34 8.47Q102.17 8.15 101.82 8.15L101.82 8.15L101.82 8.15Q101.46 8.15 101.28 8.44L101.28 8.44L101.28 8.44Q101.09 8.74 101.09 9.52L101.09 9.52L101.09 9.52Q101.09 10.30 101.28 10.61L101.28 10.61L101.28 10.61Q101.46 10.91 101.82 10.91L101.82 10.91ZM113.02 3.22L109.34 14L106.36 14L110.04 3.22L113.02 3.22ZM113.76 4.63L120.76 7.62L120.76 10.18L113.76 13.16L113.76 10.18L118.27 8.89L113.76 7.62L113.76 4.63Z"></path></g><defs data-v-fde0c5aa=""><!----></defs><g data-v-fde0c5aa="" id="888d77bb-7031-468c-9dd6-09f95942f6ba" stroke="none" fill="#ffffff" transform="matrix(0.5236826802223448,0,0,0.5236826802223448,39.99977756096341,132.45668614789633)"><path d="M46.749 59.322l-.452.904L46.07 60l.678-.678zM15.195 31.06C17.875 33.523 21.258 35 25 35s7.124-1.477 9.805-3.941c6.477 4.247 11.525 12.587 13.924 22.905a3.986 3.986 0 0 0-.9-1.378l-1.415-1.414a4 4 0 0 0-5.657 0l-5.293 5.292a5 5 0 0 0 0 7.072l.465.464H2a2 2 0 0 1-1.991-2.185c1.289-13.87 7.134-25.475 15.186-30.756zM25 32c-7.3 0-13-7.255-13-16 0-8.745 5.7-16 13-16s13 7.255 13 16c0 8.745-5.7 16-13 16zm33.293 22.707l1.414-1.414a1 1 0 0 1 1.414 0l5.293 5.293a2 2 0 0 1 0 2.828l-5.293 5.293a1 1 0 0 1-1.414 0l-1.414-1.414a1 1 0 0 1 0-1.414L62.172 60l-3.88-3.879a1 1 0 0 1 0-1.414zM45.707 65.293l-1.414 1.414a1 1 0 0 1-1.414 0l-5.293-5.293a2 2 0 0 1 0-2.828l5.293-5.293a1 1 0 0 1 1.414 0l1.414 1.414a1 1 0 0 1 0 1.414L41.828 60l3.88 3.879a1 1 0 0 1 0 1.414zm8.399-11.74l1.788.894a1 1 0 0 1 .448 1.342L51.236 66a1 1 0 0 1-1.342.447l-1.788-.894a1 1 0 0 1-.448-1.342L52.764 54a1 1 0 0 1 1.342-.447z"></path></g><defs data-v-fde0c5aa=""><!----></defs><g data-v-fde0c5aa="" id="a7937e33-3270-4ae1-bbe4-39a68c740bbe" fill="#ffffff" transform="matrix(0.38010459974320504,0,0,0.38010459974320504,87.87723455774817,157.32941535597337)"><path d="M5.11 10.57C2.86 10.57 1.60 8.93 1.60 6.85C1.60 4.76 2.86 3.12 5.11 3.12C6.64 3.12 7.64 3.85 8.12 4.98L9.23 4.98C8.64 3.29 7.13 2.10 5.03 2.10C2.24 2.10 0.55 4.21 0.55 6.85C0.55 9.48 2.24 11.59 5.03 11.59C7.13 11.59 8.64 10.40 9.23 8.71L8.12 8.71C7.64 9.84 6.64 10.57 5.11 10.57ZM20.61 4.37C18.47 4.37 17.14 5.98 17.14 7.98C17.14 9.98 18.47 11.59 20.61 11.59C22.75 11.59 24.08 9.98 24.08 7.98C24.08 5.98 22.75 4.37 20.61 4.37ZM20.61 10.64C19.05 10.64 18.19 9.42 18.19 7.98C18.19 6.54 19.05 5.32 20.61 5.32C22.16 5.32 23.03 6.54 23.03 7.98C23.03 9.42 22.16 10.64 20.61 10.64ZM35.42 4.37C33.38 4.37 32.03 5.98 32.03 7.98C32.03 9.98 33.38 11.59 35.42 11.59C36.58 11.59 37.41 11.12 37.93 10.36L37.93 11.48L38.98 11.48L38.98 1.68L37.93 1.68L37.93 5.61C37.41 4.86 36.58 4.37 35.42 4.37ZM35.56 10.64C34.01 10.64 33.08 9.42 33.08 7.98C33.08 6.54 34.01 5.32 35.56 5.32C37.11 5.32 37.98 6.54 37.98 7.98C37.98 9.42 37.11 10.64 35.56 10.64ZM47.80 11.48L48.85 11.48L48.85 4.48L47.80 4.48ZM47.75 1.93L47.75 3.30L48.89 3.30L48.89 1.93ZM57.67 4.48L57.67 11.48L58.72 11.48L58.72 7.45C58.72 6.19 59.67 5.32 60.83 5.32C61.98 5.32 62.79 6.16 62.79 7.43L62.79 11.48L63.84 11.48L63.84 7.41C63.84 5.42 62.48 4.37 61.04 4.37C59.91 4.37 59.22 4.90 58.72 5.57L58.72 4.48ZM78.05 4.48L78.05 5.60C77.53 4.84 76.71 4.37 75.54 4.37C73.50 4.37 72.16 5.92 72.16 7.92C72.16 9.93 73.50 11.48 75.54 11.48C76.71 11.48 77.53 10.99 78.05 10.23L78.05 11.20C78.05 12.64 77.35 13.41 75.74 13.41C74.68 13.41 73.98 13.01 73.70 12.32L72.53 12.32C72.93 13.54 74.03 14.36 75.80 14.36C77.90 14.36 79.10 13.27 79.10 11.27L79.10 4.48ZM75.68 10.53C74.13 10.53 73.21 9.37 73.21 7.92C73.21 6.48 74.13 5.32 75.68 5.32C77.21 5.32 78.11 6.48 78.11 7.92C78.11 9.37 77.21 10.53 75.68 10.53ZM102.03 2.21L98.13 2.21L98.13 11.48L102.03 11.48C104.24 11.48 106.29 9.74 106.29 6.85C106.29 3.95 104.24 2.21 102.03 2.21ZM101.99 10.49L99.18 10.49L99.18 3.21L101.99 3.21C103.96 3.21 105.24 4.86 105.24 6.85C105.24 8.83 103.96 10.49 101.99 10.49ZM118.38 4.37C116.65 4.37 115.95 5.73 115.81 6.20L115.81 4.48L114.76 4.48L114.76 11.48L115.81 11.48L115.81 8.40C115.81 6.86 116.76 5.42 118.33 5.42L118.45 5.42L118.45 4.37ZM129.53 10.64C128.11 10.64 127.20 9.65 127.05 8.40L132.92 8.40L132.92 7.98C132.92 5.98 131.59 4.37 129.44 4.37C127.30 4.37 125.97 5.98 125.97 7.98C125.97 9.98 127.37 11.59 129.51 11.59C131.18 11.59 132.22 10.72 132.71 9.46L131.56 9.46C131.18 10.16 130.51 10.64 129.53 10.64ZM129.44 5.32C130.79 5.32 131.63 6.23 131.82 7.42L127.06 7.42C127.26 6.23 128.10 5.32 129.44 5.32ZM144.16 4.37C142.11 4.37 140.77 5.98 140.77 7.98C140.77 9.98 142.11 11.59 144.16 11.59C145.32 11.59 146.15 11.12 146.66 10.36L146.66 11.48L147.71 11.48L147.71 4.48L146.66 4.48L146.66 5.61C146.15 4.86 145.32 4.37 144.16 4.37ZM144.30 10.64C142.74 10.64 141.82 9.42 141.82 7.98C141.82 6.54 142.74 5.32 144.30 5.32C145.85 5.32 146.72 6.54 146.72 7.98C146.72 9.42 145.85 10.64 144.30 10.64ZM162.26 7.29C162.26 6.05 163.11 5.32 164.15 5.32C165.13 5.32 165.89 6.10 165.89 7.28L165.89 11.48L166.94 11.48L166.94 7.25C166.94 5.49 165.69 4.37 164.35 4.37C162.96 4.37 162.22 5.31 161.94 5.78C161.49 4.89 160.64 4.37 159.71 4.37C158.58 4.37 157.91 4.98 157.58 5.54L157.58 4.48L156.53 4.48L156.53 11.48L157.58 11.48L157.58 7.29C157.58 6.05 158.44 5.32 159.47 5.32C160.45 5.32 161.21 6.10 161.21 7.28L161.21 11.48L162.26 11.48ZM178.12 4.37C176.32 4.37 175.38 5.11 175.38 6.37C175.38 8.93 180.04 7.84 180.04 9.59C180.04 10.54 178.82 10.70 178.25 10.70C176.89 10.70 176.36 10.00 176.29 9.28L175.20 9.28C175.27 10.51 176.29 11.59 178.23 11.59C179.97 11.59 181.09 10.85 181.09 9.49C181.09 6.86 176.43 7.95 176.43 6.27C176.43 5.59 177.00 5.26 178.09 5.26C179.27 5.26 179.72 5.75 179.80 6.36L180.87 6.36C180.74 5.33 179.97 4.37 178.12 4.37ZM188.68 13.34L189.63 13.34L190.86 10.36L189.49 10.36ZM213.63 2.21L209.72 2.21L209.72 11.48L213.63 11.48C215.84 11.48 217.88 9.74 217.88 6.85C217.88 3.95 215.84 2.21 213.63 2.21ZM213.58 10.49L210.77 10.49L210.77 3.21L213.58 3.21C215.56 3.21 216.83 4.86 216.83 6.85C216.83 8.83 215.56 10.49 213.58 10.49ZM229.47 10.64C228.06 10.64 227.15 9.65 227.00 8.40L232.86 8.40L232.86 7.98C232.86 5.98 231.53 4.37 229.39 4.37C227.25 4.37 225.92 5.98 225.92 7.98C225.92 9.98 227.32 11.59 229.46 11.59C231.13 11.59 232.16 10.72 232.65 9.46L231.50 9.46C231.13 10.16 230.45 10.64 229.47 10.64ZM229.39 5.32C230.73 5.32 231.57 6.23 231.77 7.42L227.01 7.42C227.21 6.23 228.05 5.32 229.39 5.32ZM243.59 4.37C241.78 4.37 240.84 5.11 240.84 6.37C240.84 8.93 245.50 7.84 245.50 9.59C245.50 10.54 244.29 10.70 243.71 10.70C242.35 10.70 241.82 10.00 241.75 9.28L240.66 9.28C240.73 10.51 241.75 11.59 243.70 11.59C245.43 11.59 246.55 10.85 246.55 9.49C246.55 6.86 241.89 7.95 241.89 6.27C241.89 5.59 242.47 5.26 243.56 5.26C244.73 5.26 245.18 5.75 245.27 6.36L246.33 6.36C246.20 5.33 245.43 4.37 243.59 4.37ZM254.90 11.48L255.95 11.48L255.95 4.48L254.90 4.48ZM254.86 1.93L254.86 3.30L255.99 3.30L255.99 1.93ZM270.23 4.48L270.23 5.60C269.71 4.84 268.88 4.37 267.72 4.37C265.68 4.37 264.33 5.92 264.33 7.92C264.33 9.93 265.68 11.48 267.72 11.48C268.88 11.48 269.71 10.99 270.23 10.23L270.23 11.20C270.23 12.64 269.53 13.41 267.92 13.41C266.85 13.41 266.15 13.01 265.87 12.32L264.71 12.32C265.10 13.54 266.21 14.36 267.97 14.36C270.07 14.36 271.28 13.27 271.28 11.27L271.28 4.48ZM267.86 10.53C266.31 10.53 265.38 9.37 265.38 7.92C265.38 6.48 266.31 5.32 267.86 5.32C269.39 5.32 270.28 6.48 270.28 7.92C270.28 9.37 269.39 10.53 267.86 10.53ZM280.10 4.48L280.10 11.48L281.15 11.48L281.15 7.45C281.15 6.19 282.10 5.32 283.26 5.32C284.41 5.32 285.22 6.16 285.22 7.43L285.22 11.48L286.27 11.48L286.27 7.41C286.27 5.42 284.91 4.37 283.47 4.37C282.34 4.37 281.65 4.90 281.15 5.57L281.15 4.48ZM295.02 11.48L296.07 11.48L296.07 4.48L295.02 4.48ZM294.98 1.93L294.98 3.30L296.11 3.30L296.11 1.93ZM304.89 4.48L304.89 11.48L305.94 11.48L305.94 7.45C305.94 6.19 306.89 5.32 308.06 5.32C309.20 5.32 310.02 6.16 310.02 7.43L310.02 11.48L311.07 11.48L311.07 7.41C311.07 5.42 309.71 4.37 308.27 4.37C307.13 4.37 306.45 4.90 305.94 5.57L305.94 4.48ZM325.28 4.48L325.28 5.60C324.76 4.84 323.93 4.37 322.77 4.37C320.73 4.37 319.38 5.92 319.38 7.92C319.38 9.93 320.73 11.48 322.77 11.48C323.93 11.48 324.76 10.99 325.28 10.23L325.28 11.20C325.28 12.64 324.58 13.41 322.97 13.41C321.90 13.41 321.20 13.01 320.92 12.32L319.76 12.32C320.15 13.54 321.26 14.36 323.02 14.36C325.12 14.36 326.33 13.27 326.33 11.27L326.33 4.48ZM322.91 10.53C321.36 10.53 320.43 9.37 320.43 7.92C320.43 6.48 321.36 5.32 322.91 5.32C324.44 5.32 325.33 6.48 325.33 7.92C325.33 9.37 324.44 10.53 322.91 10.53ZM346.40 7.92L349.62 7.92L351.86 11.48L353.11 11.48L350.67 7.74C351.71 7.50 352.91 6.90 352.91 5.11C352.91 3.35 351.69 2.21 349.79 2.21L345.35 2.21L345.35 11.48L346.40 11.48ZM346.40 3.21L349.66 3.21C350.98 3.21 351.86 3.93 351.86 5.11C351.86 6.55 350.60 6.93 349.61 6.93L346.40 6.93ZM364.45 10.64C363.03 10.64 362.12 9.65 361.97 8.40L367.84 8.40L367.84 7.98C367.84 5.98 366.51 4.37 364.36 4.37C362.22 4.37 360.89 5.98 360.89 7.98C360.89 9.98 362.29 11.59 364.43 11.59C366.10 11.59 367.14 10.72 367.63 9.46L366.48 9.46C366.10 10.16 365.43 10.64 364.45 10.64ZM364.36 5.32C365.71 5.32 366.55 6.23 366.74 7.42L361.98 7.42C362.18 6.23 363.02 5.32 364.36 5.32ZM379.08 4.37C377.03 4.37 375.69 5.98 375.69 7.98C375.69 9.98 377.03 11.59 379.08 11.59C380.24 11.59 381.07 11.12 381.58 10.36L381.58 11.48L382.63 11.48L382.63 4.48L381.58 4.48L381.58 5.61C381.07 4.86 380.24 4.37 379.08 4.37ZM379.22 10.64C377.66 10.64 376.74 9.42 376.74 7.98C376.74 6.54 377.66 5.32 379.22 5.32C380.77 5.32 381.64 6.54 381.64 7.98C381.64 9.42 380.77 10.64 379.22 10.64ZM392.50 1.68L391.45 1.68L391.45 11.48L392.50 11.48ZM401.32 11.48L402.37 11.48L402.37 4.48L401.32 4.48ZM401.28 1.93L401.28 3.30L402.42 3.30L402.42 1.93ZM413.00 11.48L413.00 5.40L414.61 5.40L414.61 4.48L413.00 4.48L413.00 1.97L411.95 1.97L411.95 4.48L410.52 4.48L410.52 5.40L411.95 5.40L411.95 11.48ZM422.76 11.48L423.81 11.48L423.81 4.48L422.76 4.48ZM422.72 1.93L422.72 3.30L423.85 3.30L423.85 1.93ZM435.75 10.64C434.34 10.64 433.43 9.65 433.27 8.40L439.14 8.40L439.14 7.98C439.14 5.98 437.81 4.37 435.67 4.37C433.52 4.37 432.19 5.98 432.19 7.98C432.19 9.98 433.59 11.59 435.74 11.59C437.40 11.59 438.44 10.72 438.93 9.46L437.78 9.46C437.40 10.16 436.73 10.64 435.75 10.64ZM435.67 5.32C437.01 5.32 437.85 6.23 438.05 7.42L433.29 7.42C433.48 6.23 434.32 5.32 435.67 5.32ZM449.86 4.37C448.06 4.37 447.12 5.11 447.12 6.37C447.12 8.93 451.78 7.84 451.78 9.59C451.78 10.54 450.56 10.70 449.99 10.70C448.63 10.70 448.10 10.00 448.03 9.28L446.94 9.28C447.01 10.51 448.03 11.59 449.97 11.59C451.71 11.59 452.83 10.85 452.83 9.49C452.83 6.86 448.17 7.95 448.17 6.27C448.17 5.59 448.74 5.26 449.83 5.26C451.01 5.26 451.46 5.75 451.54 6.36L452.61 6.36C452.48 5.33 451.71 4.37 449.86 4.37Z"></path></g></svg>